<?xml version="1.0" encoding="utf-8"?>
<!-- Generator: Adobe Illustrator 27.7.0, SVG Export Plug-In . SVG Version: 6.00 Build 0)  -->
<svg version="1.1" id="Layer_1" xmlns="http://www.w3.org/2000/svg" xmlns:xlink="http://www.w3.org/1999/xlink" x="0px" y="0px"
	 viewBox="0 0 24 24" style="enable-background:new 0 0 24 24;" xml:space="preserve">
<style type="text/css">
	.st0{fill:#33506F;}
	.st1{fill:#325070;}
	.st2{fill:#325171;}
	.st3{fill:#325172;}
	.st4{fill:#325273;}
	.st5{fill:#325274;}
	.st6{fill:#325375;}
	.st7{fill:#325376;}
	.st8{fill:#325478;}
	.st9{fill:#315579;}
	.st10{fill:#31557A;}
	.st11{fill:#31567B;}
	.st12{fill:#31567C;}
	.st13{fill:#31577D;}
	.st14{fill:#31577E;}
	.st15{fill:#31587F;}
	.st16{fill:#315880;}
	.st17{fill:#305981;}
	.st18{fill:#305982;}
	.st19{fill:#305A83;}
	.st20{fill:#305A84;}
	.st21{fill:#305B85;}
	.st22{fill:#305B86;}
	.st23{fill:#305C87;}
	.st24{fill:#305C88;}
	.st25{fill:#2F5D89;}
	.st26{fill:#2F5E8A;}
	.st27{fill:#2F5E8B;}
	.st28{fill:#2F5F8C;}
	.st29{fill:#2F5F8D;}
	.st30{fill:#2F608E;}
	.st31{fill:#2F608F;}
	.st32{fill:#2F6190;}
	.st33{fill:#2E6191;}
	.st34{fill:#2E6292;}
	.st35{fill:#2E6293;}
	.st36{fill:#2E6394;}
	.st37{fill:#2E6395;}
	.st38{fill:#2E6496;}
	.st39{fill:#2E6497;}
	.st40{fill:#2E6598;}
	.st41{fill:#364153;}
	.st42{fill:#364254;}
	.st43{fill:#364255;}
	.st44{fill:#364356;}
	.st45{fill:#364357;}
	.st46{fill:#354458;}
	.st47{fill:#354459;}
	.st48{fill:#35455A;}
	.st49{fill:#35455B;}
	.st50{fill:#35465C;}
	.st51{fill:#35465D;}
	.st52{fill:#35475E;}
	.st53{fill:#35475F;}
	.st54{fill:#344860;}
	.st55{fill:#344861;}
	.st56{fill:#344962;}
	.st57{fill:#344963;}
	.st58{fill:#344A64;}
	.st59{fill:#344B65;}
	.st60{fill:#344B66;}
	.st61{fill:#344C67;}
	.st62{fill:#334C68;}
	.st63{fill:#334D69;}
	.st64{fill:#334D6A;}
	.st65{fill:#334E6B;}
	.st66{fill:#334E6C;}
	.st67{fill:#334F6D;}
	.st68{fill:#334F6E;}
	.st69{fill:#2D6599;}
	.st70{fill:#2D669A;}
	.st71{fill:#2D669B;}
	.st72{fill:#2D679C;}
</style>
<g>
	<polygon class="st0" points="13.2,9.7 13,10 13.5,10 15.1,10 15.4,9.7 13.5,9.7 	"/>
	<polygon class="st1" points="13,10 12.7,10.2 13.5,10.2 14.8,10.2 15.1,10 13.5,10 	"/>
	<polygon class="st2" points="12.7,10.2 12.4,10.5 14.5,10.5 14.8,10.2 13.5,10.2 	"/>
	<polygon class="st3" points="12.2,10.8 14.3,10.8 14.5,10.5 12.4,10.5 	"/>
	<polygon class="st4" points="11.9,11 14,11 14.3,10.8 12.2,10.8 	"/>
	<polygon class="st5" points="11.6,11.3 13.7,11.3 14,11 11.9,11 	"/>
	<polygon class="st6" points="11.3,11.6 13.5,11.6 13.7,11.3 11.6,11.3 	"/>
	<polygon class="st7" points="11.1,11.9 13.2,11.9 13.5,11.6 11.3,11.6 	"/>
	<polygon class="st8" points="10.8,12.1 12.9,12.1 13.2,11.9 11.1,11.9 	"/>
	<polygon class="st9" points="10.5,12.4 12.7,12.4 12.9,12.1 10.8,12.1 	"/>
	<polygon class="st10" points="10.3,12.7 12.4,12.7 12.7,12.4 10.5,12.4 	"/>
	<polygon class="st11" points="10,12.9 12.1,12.9 12.4,12.7 10.3,12.7 	"/>
	<polygon class="st12" points="9.7,13.2 11.8,13.2 12.1,12.9 10,12.9 	"/>
	<polygon class="st13" points="9.5,13.5 11.6,13.5 11.8,13.2 9.7,13.2 	"/>
	<polygon class="st14" points="9.2,13.7 11.3,13.7 11.6,13.5 9.5,13.5 	"/>
	<polygon class="st15" points="8.9,14 11,14 11.3,13.7 9.2,13.7 	"/>
	<polygon class="st16" points="8.6,14.3 10.8,14.3 11,14 8.9,14 	"/>
	<polygon class="st17" points="8.4,14.6 10.5,14.6 10.8,14.3 8.6,14.3 	"/>
	<polygon class="st18" points="8.1,14.8 10.2,14.8 10.5,14.6 8.4,14.6 	"/>
	<polygon class="st19" points="7.8,15.1 9.9,15.1 10.2,14.8 8.1,14.8 	"/>
	<polygon class="st20" points="7.6,15.4 9.7,15.4 9.9,15.1 7.8,15.1 	"/>
	<polygon class="st21" points="7.3,15.6 9.4,15.6 9.7,15.4 7.6,15.4 	"/>
	<polygon class="st22" points="7,15.9 9.1,15.9 9.4,15.6 7.3,15.6 	"/>
	<polygon class="st23" points="6.7,16.2 8.9,16.2 9.1,15.9 7,15.9 	"/>
	<polygon class="st24" points="6.5,16.5 8.6,16.5 8.9,16.2 6.7,16.2 	"/>
	<polygon class="st25" points="6.2,16.7 8.3,16.7 8.6,16.5 6.5,16.5 	"/>
	<polygon class="st26" points="5.9,17 8.1,17 8.3,16.7 6.2,16.7 	"/>
	<polygon class="st27" points="5.7,17.3 7.8,17.3 8.1,17 5.9,17 	"/>
	<polygon class="st28" points="5.4,17.5 7.5,17.5 7.8,17.3 5.7,17.3 	"/>
	<polygon class="st29" points="5.1,17.8 7.2,17.8 7.5,17.5 5.4,17.5 	"/>
	<polygon class="st30" points="4.9,18.1 7,18.1 7.2,17.8 5.1,17.8 	"/>
	<polygon class="st31" points="4.6,18.3 6.7,18.3 7,18.1 4.9,18.1 	"/>
	<polygon class="st32" points="4.3,18.6 6.4,18.6 6.7,18.3 4.6,18.3 	"/>
	<polygon class="st33" points="4,18.9 6.2,18.9 6.4,18.6 4.3,18.6 	"/>
	<polygon class="st34" points="3.8,19.2 5.9,19.2 6.2,18.9 4,18.9 	"/>
	<polygon class="st35" points="3.5,19.4 5.6,19.4 5.9,19.2 3.8,19.2 	"/>
	<polygon class="st36" points="3.2,19.7 5.3,19.7 5.6,19.4 3.5,19.4 	"/>
	<polygon class="st37" points="3,20 5.1,20 5.3,19.7 3.2,19.7 	"/>
	<polygon class="st38" points="2.7,20.2 4.8,20.2 5.1,20 3,20 	"/>
	<polygon class="st39" points="2.4,20.5 4.5,20.5 4.8,20.2 2.7,20.2 	"/>
	<path class="st40" d="M2.3,20.6c-0.1,0.1-0.1,0.1-0.1,0.2h0.1h1.1h0.9l0.3-0.3L2.3,20.6L2.3,20.6z"/>
	<polygon class="st41" points="21.9,2.1 21.9,2.1 21.9,2.1 	"/>
	<polygon class="st41" points="21.8,2.4 21.9,2.1 20.9,2.4 	"/>
	<polygon class="st42" points="19.9,2.7 21.7,2.7 21.8,2.4 20.9,2.4 	"/>
	<polygon class="st43" points="18.9,2.9 21.7,2.9 21.7,2.7 19.9,2.7 	"/>
	<polygon class="st44" points="17.9,3.2 21.6,3.2 21.7,2.9 18.9,2.9 	"/>
	<polygon class="st45" points="16.9,3.5 21.5,3.5 21.6,3.2 17.9,3.2 	"/>
	<polygon class="st46" points="15.8,3.7 21.4,3.7 21.5,3.5 16.9,3.5 	"/>
	<polygon class="st47" points="14.8,4 21.4,4 21.4,3.7 15.8,3.7 	"/>
	<polygon class="st48" points="13.8,4.3 21.3,4.3 21.4,4 14.8,4 	"/>
	<polygon class="st49" points="13.5,4.4 13.7,4.5 21.2,4.5 21.3,4.3 13.8,4.3 	"/>
	<polygon class="st50" points="14,4.8 21.1,4.8 21.2,4.5 13.7,4.5 	"/>
	<polygon class="st51" points="14.2,5.1 21.1,5.1 21.1,4.8 14,4.8 	"/>
	<polygon class="st52" points="14.5,5.4 21,5.4 21.1,5.1 14.2,5.1 	"/>
	<polygon class="st53" points="14.8,5.6 20.9,5.6 21,5.4 14.5,5.4 	"/>
	<polygon class="st54" points="15,5.9 20.9,5.9 20.9,5.6 14.8,5.6 	"/>
	<polygon class="st55" points="15.3,6.2 20.8,6.2 20.9,5.9 15,5.9 	"/>
	<polygon class="st56" points="15.6,6.4 17.6,6.4 20.7,6.4 20.8,6.2 15.3,6.2 	"/>
	<polygon class="st57" points="15.6,6.4 15.9,6.7 17.6,6.7 20.6,6.7 20.7,6.4 17.6,6.4 	"/>
	<polygon class="st58" points="15.9,6.7 16,6.9 15.9,7 17.6,7 20.6,7 20.6,6.7 17.6,6.7 	"/>
	<polygon class="st59" points="15.9,7 15.7,7.3 17.6,7.3 20.5,7.3 20.6,7 17.6,7 	"/>
	<polygon class="st60" points="15.7,7.3 15.4,7.5 17.6,7.5 20.4,7.5 20.5,7.3 17.6,7.3 	"/>
	<polygon class="st61" points="15.4,7.5 15.1,7.8 17.6,7.8 20.3,7.8 20.4,7.5 17.6,7.5 	"/>
	<polygon class="st62" points="15.1,7.8 14.9,8.1 17,8.1 17.1,8 17.2,8.1 17.6,8.1 20.3,8.1 20.3,7.8 17.6,7.8 	"/>
	<polygon class="st63" points="14.6,8.3 16.7,8.3 17,8.1 14.9,8.1 	"/>
	<polygon class="st63" points="17.2,8.1 17.5,8.3 17.6,8.3 20.2,8.3 20.3,8.1 17.6,8.1 	"/>
	<polygon class="st64" points="17.5,8.3 17.8,8.6 20.1,8.6 20.2,8.3 17.6,8.3 	"/>
	<polygon class="st64" points="14.3,8.6 16.4,8.6 16.7,8.3 14.6,8.3 	"/>
	<polygon class="st65" points="18,8.9 20.1,8.9 20.1,8.6 17.8,8.6 	"/>
	<polygon class="st65" points="14.1,8.9 16.2,8.9 16.4,8.6 14.3,8.6 	"/>
	<polygon class="st66" points="18.3,9.1 20,9.1 20.1,8.9 18,8.9 	"/>
	<polygon class="st66" points="13.8,9.1 15.9,9.1 16.2,8.9 14.1,8.9 	"/>
	<polygon class="st67" points="18.6,9.4 19.9,9.4 20,9.1 18.3,9.1 	"/>
	<polygon class="st67" points="13.5,9.4 15.6,9.4 15.9,9.1 13.8,9.1 	"/>
	<polygon class="st68" points="18.8,9.7 19.8,9.7 19.9,9.4 18.6,9.4 	"/>
	<polygon class="st68" points="13.2,9.7 13.5,9.7 15.4,9.7 15.6,9.4 13.5,9.4 	"/>
	<polygon class="st0" points="19.1,10 19.8,10 19.8,9.7 18.8,9.7 	"/>
	<polygon class="st1" points="19.4,10.2 19.7,10.2 19.8,10 19.1,10 	"/>
	<polygon class="st2" points="19.6,10.5 19.7,10.2 19.4,10.2 	"/>
	<path class="st69" d="M2.3,20.8H2.2c0,0.1-0.1,0.2-0.1,0.3h0.2h1.1H4l0.3-0.3H3.4H2.3z"/>
	<path class="st70" d="M2.3,21.1H2.1c0,0.1,0,0.2,0,0.3h0.2h1.1h0.3L4,21.1H3.4H2.3z"/>
	<path class="st71" d="M2.3,21.3H2.2c0,0.1,0.1,0.2,0.1,0.3h0h1.1h0.1l0.3-0.3H3.4H2.3z"/>
	<path class="st72" d="M2.3,21.6L2.3,21.6C2.3,21.6,2.3,21.6,2.3,21.6c0.3,0.3,0.8,0.3,1.1,0.1l0.1-0.1H3.4H2.3z"/>
</g>
</svg>
