<svg id="Layer_1" data-name="Layer 1" xmlns="http://www.w3.org/2000/svg" viewBox="0 0 68.65 55.85"><title>no-image</title><circle cx="39.29" cy="14.12" r="3.02" style="fill:#f0f0f0"/><path d="M53.36,55.44A14.65,14.65,0,1,1,68,40.8,14.66,14.66,0,0,1,53.36,55.44Zm0-26.29A11.65,11.65,0,1,0,65,40.8,11.67,11.67,0,0,0,53.36,29.15Z" style="fill:#f0f0f0"/><path d="M53.36,41.56a1.5,1.5,0,0,1-1.5-1.5V34a1.5,1.5,0,1,1,3,0v6.1A1.5,1.5,0,0,1,53.36,41.56Z" style="fill:#f0f0f0"/><circle cx="53.36" cy="45.83" r="1.4" style="fill:#f0f0f0"/><path d="M33.39,45H5.69A5.69,5.69,0,0,1,0,39.27V5.69A5.69,5.69,0,0,1,5.69,0H48a5.7,5.7,0,0,1,5.69,5.69v15h-3v-15A2.7,2.7,0,0,0,48,3H5.69A2.7,2.7,0,0,0,3,5.69V39.27A2.7,2.7,0,0,0,5.69,42h27.7Z" style="fill:#f0f0f0"/><polygon points="30.98 34.61 17.67 21.17 2.49 34.56 0.51 32.31 17.81 17.05 31.31 30.69 40.01 24.49 43.07 26.3 41.55 28.88 40.16 28.06 30.98 34.61" style="fill:#f0f0f0"/></svg>