<?xml version="1.0" encoding="utf-8"?>
<!-- Generator: Adobe Illustrator 27.7.0, SVG Export Plug-In . SVG Version: 6.00 Build 0)  -->
<svg version="1.1" id="Layer_1" xmlns="http://www.w3.org/2000/svg" xmlns:xlink="http://www.w3.org/1999/xlink" x="0px" y="0px"
	 viewBox="0 0 24 24" style="enable-background:new 0 0 24 24;" xml:space="preserve">
<style type="text/css">
	.st0{fill:#FFFFFF;}
	.st1{fill:#845EEE;}
	.st2{fill:#A8B4F6;}
	.st3{fill:#743EE4;}
	.st4{fill:#4E46DC;}
	.st5{fill:#6466E9;}
</style>
<g>
	<path class="st0" d="M1.5,14.6c0,1.1,0,1.9,0,2.6c0,0.5,0.1,0.8,0.2,1C2,18.6,2.4,19,2.8,19.2c0.2,0.1,0.4,0.2,1,0.2
		c0.6,0,1.4,0,2.6,0h11.1c1.1,0,1.9,0,2.6,0c0.5,0,0.8-0.1,1-0.2c0.5-0.2,0.8-0.6,1.1-1.1c0.1-0.2,0.2-0.5,0.2-1c0-0.6,0-1.4,0-2.6
		V8h-21V14.6z M13.9,15c0,0.4-0.3,0.8-0.8,0.8H5.7c-0.4,0-0.8-0.3-0.8-0.8s0.3-0.8,0.8-0.8h7.5C13.6,14.2,13.9,14.6,13.9,15z
		 M4.9,11h8c0.4,0,0.7,0.3,0.7,0.8s-0.3,0.8-0.7,0.8h-8c-0.4,0-0.8-0.3-0.8-0.8S4.5,11,4.9,11z"/>
	<path class="st1" d="M22.5,8v6.6c0,1.1,0,1.9,0,2.6c0,0.5-0.1,0.8-0.2,1c-0.2,0.5-0.6,0.8-1.1,1.1c-0.2,0.1-0.6,0.2-1,0.2
		c-0.6,0-1.4,0-2.6,0H6.4c-1.1,0-1.9,0-2.6,0c-0.6,0-0.9-0.1-1-0.2C2.4,19,2,18.6,1.8,18.2c-0.1-0.2-0.2-0.6-0.2-1
		c0-0.6,0-1.4,0-2.6V8H0v6.6c0,1.2,0,2,0.1,2.7c0.1,0.7,0.2,1.2,0.4,1.6c0.4,0.7,1,1.3,1.7,1.7c0.4,0.2,0.9,0.3,1.6,0.4
		C4.4,21,5.3,21,6.4,21h11.1c1.2,0,2,0,2.7-0.1c0.7-0.1,1.2-0.2,1.6-0.4c0.7-0.4,1.3-1,1.7-1.7c0.2-0.4,0.3-0.9,0.4-1.6
		c0.1-0.7,0.1-1.5,0.1-2.7V8H22.5z"/>
	<path class="st1" d="M24,7.7V6.5h0c0,0.2,0,0.4,0,0.7L24,7.7z"/>
	<path class="st1" d="M0,6.5v0.8C0,6.9,0,6.7,0,6.5L0,6.5z"/>
	<path class="st2" d="M20.5,4.5c-0.2,0-0.6,0-1.5,0H5c-0.9,0-1.3,0-1.5,0c-1,0.2-1.8,1-2,1.9h20.9C22.2,5.5,21.5,4.7,20.5,4.5z"/>
	<path class="st3" d="M1.5,8h21H24h0l0-0.3l0-0.5c0-0.3,0-0.5,0-0.7c0-0.1,0-0.2,0-0.3c-0.3-1.6-1.5-2.8-3.1-3.1C20.4,3,20,3,19,3H5
		C4,3,3.6,3,3.2,3.1C1.6,3.4,0.4,4.6,0.1,6.2c0,0.1,0,0.2,0,0.3c0,0.2,0,0.4,0,0.8V8H1.5z M1.5,6.5c0.2-1,1-1.8,2-1.9
		c0.2,0,0.6,0,1.5,0h14c0.9,0,1.3,0,1.5,0c1,0.2,1.8,1,2,1.9H1.5z"/>
	<path class="st4" d="M4.9,12.5h8c0.4,0,0.7-0.3,0.7-0.8S13.4,11,12.9,11h-8c-0.4,0-0.8,0.3-0.8,0.8S4.5,12.5,4.9,12.5z"/>
	<path class="st5" d="M5.7,14.2c-0.4,0-0.8,0.3-0.8,0.8s0.3,0.8,0.8,0.8h7.5c0.4,0,0.8-0.3,0.8-0.8s-0.3-0.8-0.8-0.8H5.7z"/>
</g>
</svg>
