<svg width="82" height="53" viewBox="0 0 82 53" fill="none" xmlns="http://www.w3.org/2000/svg">
    <path fill-rule="evenodd" clip-rule="evenodd" d="M0.946533 9.57934C0.946533 7.3702 2.73739 5.57935 4.94653 5.57935H60.4304C62.6395 5.57935 64.4304 7.37021 64.4304 9.57935V48.031C64.4304 50.2401 62.6395 52.031 60.4304 52.031H4.94653C2.73739 52.031 0.946533 50.2401 0.946533 48.031V9.57934ZM58.1458 43.7361L38.1218 14.6278L23.5818 34.5496L18.4066 26.6857L7.54212 43.7976C6.69671 45.1291 7.6533 46.8696 9.23055 46.8696H56.498C58.1086 46.8696 59.0586 45.063 58.1458 43.7361ZM17.9788 20.5472C15.6984 20.5472 13.8498 18.6985 13.8498 16.4181C13.8498 14.1377 15.6984 12.2891 17.9788 12.2891C20.2592 12.2891 22.1079 14.1377 22.1079 16.4181C22.1079 18.6985 20.2592 20.5472 17.9788 20.5472Z" fill="#E3E8EF"/>
    <path d="M59.8272 30.3215L69.6893 30.3215C70.7939 30.3215 71.6893 29.4261 71.6893 28.3215L71.6893 18.7289L78.4784 18.7289C80.2752 18.7289 81.1606 16.5437 79.8706 15.293L66.0806 1.92357C65.3049 1.17149 64.0721 1.17149 63.2963 1.92357L49.5063 15.293C48.2163 16.5437 49.1017 18.7289 50.8985 18.7289L57.8272 18.7289L57.8272 28.3215C57.8272 29.4261 58.7226 30.3215 59.8272 30.3215Z" fill="#E3E8EF" stroke="white" stroke-width="2"/>
    </svg>
    