<svg width="24" height="24" viewBox="0 0 24 24" fill="none" xmlns="http://www.w3.org/2000/svg">
<path d="M5.55 10.95c-3.15 0-5.55-2.4-5.55-5.4s2.4-5.55 5.55-5.55c3.15 0 5.55 2.4 5.55 5.55s-2.55 5.4-5.55 5.4zM5.55 1.95c-1.95 0-3.6 1.65-3.6 3.6s1.65 3.45 3.6 3.45c1.95 0 3.45-1.5 3.45-3.45s-1.5-3.6-3.45-3.6z" fill="#04263D"></path>
<path d="M23.632 10.224c0.169 0.333-0.073 0.726-0.446 0.726h-9.332c-0.37 0-0.612-0.389-0.448-0.721l4.602-9.332c0.182-0.37 0.708-0.372 0.894-0.005l4.73 9.332zM16.2 9h4.65l-2.4-4.65-2.25 4.65z" fill="#04263D"></path>
<path d="M10.95 23c0 0.552-0.448 1-1 1h-8.95c-0.552 0-1-0.448-1-1v-8.95c0-0.552 0.448-1 1-1h8.95c0.552 0 1 0.448 1 1v8.95zM1.95 22.050h7.050v-7.050h-7.050v7.050z" fill="#04263D"></path>
<path d="M21 24h-4.95c-1.65 0-3-1.35-3-3v-4.95c0-1.65 1.35-3 3-3h4.95c1.65 0 3 1.35 3 3v4.95c0 1.65-1.35 3-3 3zM16.050 15c-0.6 0-1.050 0.45-1.050 1.050v4.95c0 0.6 0.45 1.050 1.050 1.050h4.95c0.6 0 1.050-0.45 1.050-1.050v-4.95c0-0.6-0.45-1.050-1.050-1.050h-4.95z" fill="#04263D"></path>
</svg>
