<svg xmlns="http://www.w3.org/2000/svg" xmlns:xlink="http://www.w3.org/1999/xlink" viewBox="0 0 48 48" width="48px" height="48px"><defs><linearGradient id="9HymOnUG~mDdMtSxE8UmKb" x1="24" x2="24" y1="41" y2="13" gradientUnits="userSpaceOnUse"><stop offset="0" stop-color="#331c0e"/><stop offset=".039" stop-color="#4f3115"/><stop offset=".082" stop-color="#66431b"/><stop offset=".132" stop-color="#795120"/><stop offset=".192" stop-color="#855b24"/><stop offset=".27" stop-color="#8d6025"/><stop offset=".439" stop-color="#8f6226"/></linearGradient><linearGradient id="9HymOnUG~mDdMtSxE8UmKc" x1="24" x2="24" y1="39" y2="15" gradientUnits="userSpaceOnUse"><stop offset=".207" stop-color="#553319"/><stop offset=".365" stop-color="#6f4d2c"/><stop offset=".83" stop-color="#b89763"/><stop offset=".933" stop-color="#ba9e6a"/><stop offset="1" stop-color="#bda572"/></linearGradient><linearGradient id="9HymOnUG~mDdMtSxE8UmKe" x1="24" x2="24" y1="12.5" y2="6.5" gradientUnits="userSpaceOnUse"><stop offset="0" stop-color="#80580d"/><stop offset=".052" stop-color="#8c6818"/><stop offset=".173" stop-color="#a4862f"/><stop offset=".276" stop-color="#b3993d"/><stop offset=".348" stop-color="#b8a042"/><stop offset=".417" stop-color="#bca549"/><stop offset=".516" stop-color="#c6b35c"/><stop offset=".634" stop-color="#d7c97b"/><stop offset=".764" stop-color="#eee8a6"/><stop offset=".821" stop-color="#f9f7bb"/><stop offset=".846" stop-color="#e3dd9c"/><stop offset=".899" stop-color="#b9ab61"/><stop offset=".944" stop-color="#9a8736"/><stop offset=".979" stop-color="#87701c"/><stop offset="1" stop-color="#806812"/></linearGradient><linearGradient id="9HymOnUG~mDdMtSxE8UmKh" x1="24" x2="24" y1="11" y2="29.728" gradientUnits="userSpaceOnUse"><stop offset="0" stop-color="#c2ab6c"/><stop offset=".041" stop-color="#ba9d5f"/><stop offset=".118" stop-color="#af894b"/><stop offset=".17" stop-color="#ab8244"/><stop offset=".793" stop-color="#724d1e"/></linearGradient><linearGradient id="9HymOnUG~mDdMtSxE8UmKi" x1="24" x2="24" y1="11" y2="27.728" gradientUnits="userSpaceOnUse"><stop offset="0" stop-color="#bda572"/><stop offset=".067" stop-color="#ba9e6a"/><stop offset=".17" stop-color="#b89763"/><stop offset=".635" stop-color="#6f4d2c"/><stop offset=".793" stop-color="#553319"/></linearGradient><linearGradient id="9HymOnUG~mDdMtSxE8UmKa" x1="24" x2="24" y1="32" y2="26" gradientUnits="userSpaceOnUse"><stop offset="0" stop-color="#80580d"/><stop offset=".052" stop-color="#8c6818"/><stop offset=".173" stop-color="#a4862f"/><stop offset=".276" stop-color="#b3993d"/><stop offset=".348" stop-color="#b8a042"/><stop offset=".399" stop-color="#bca549"/><stop offset=".473" stop-color="#c6b35c"/><stop offset=".56" stop-color="#d7c97b"/><stop offset=".657" stop-color="#eee8a6"/><stop offset=".699" stop-color="#f9f7bb"/><stop offset=".732" stop-color="#e3dd9c"/><stop offset=".799" stop-color="#b9ab61"/><stop offset=".856" stop-color="#9a8736"/><stop offset=".9" stop-color="#87701c"/><stop offset=".927" stop-color="#806812"/></linearGradient><linearGradient id="9HymOnUG~mDdMtSxE8UmKj" y1="27" y2="25" xlink:href="#9HymOnUG~mDdMtSxE8UmKa"/><radialGradient id="9HymOnUG~mDdMtSxE8UmKd" cx="23.868" cy="22.525" r="45.188" gradientTransform="matrix(1 0 0 .351 0 14.624)" gradientUnits="userSpaceOnUse"><stop offset=".347" stop-color="#452018"/><stop offset=".79" stop-color="#7a5526" stop-opacity="0"/></radialGradient><radialGradient id="9HymOnUG~mDdMtSxE8UmKf" cx="24.051" cy="10.46" r="15.251" gradientTransform="matrix(1 0 0 .367 0 6.624)" gradientUnits="userSpaceOnUse"><stop offset="0" stop-color="#bda572"/><stop offset=".067" stop-color="#ba9e6a"/><stop offset=".17" stop-color="#b89763"/><stop offset=".453" stop-color="#744d2c"/><stop offset=".52" stop-color="#633b1f"/><stop offset=".915" stop-color="#b18d4f"/></radialGradient><radialGradient id="9HymOnUG~mDdMtSxE8UmKg" cx="24" cy="29" r="4.928" gradientUnits="userSpaceOnUse"><stop offset=".251" stop-color="#331812"/><stop offset=".65" stop-color="#4c2c18" stop-opacity=".47"/><stop offset=".959" stop-color="#623d1e" stop-opacity="0"/></radialGradient></defs><g data-name="briefcase"><path fill="url(#9HymOnUG~mDdMtSxE8UmKb)" d="M6,13H42a0,0,0,0,1,0,0V39a2,2,0,0,1-2,2H8a2,2,0,0,1-2-2V13A0,0,0,0,1,6,13Z"/><path fill="url(#9HymOnUG~mDdMtSxE8UmKc)" d="M38.5,39H9.5A1.5,1.5,0,0,1,8,37.5V15H40V37.5A1.5,1.5,0,0,1,38.5,39ZM9,16V37.5a.5.5,0,0,0,.5.5h29a.5.5,0,0,0,.5-.5V16Z"/><path fill="url(#9HymOnUG~mDdMtSxE8UmKd)" d="M6,12H42a0,0,0,0,1,0,0V39a2,2,0,0,1-2,2H8a2,2,0,0,1-2-2V12A0,0,0,0,1,6,12Z"/><path fill="url(#9HymOnUG~mDdMtSxE8UmKe)" d="M31.924,12.5H16.076l-.069-.418c-.1-.567-.488-3.428,1.057-4.046A22.382,22.382,0,0,1,24,6.5a22.382,22.382,0,0,1,6.936,1.536c1.545.618,1.152,3.479,1.057,4.046Zm-14.986-1H31.062c.1-1.025.024-2.327-.5-2.536A21.8,21.8,0,0,0,24,7.5a21.758,21.758,0,0,0-6.564,1.464C16.914,9.173,16.834,10.475,16.938,11.5Z"/><path fill="url(#9HymOnUG~mDdMtSxE8UmKf)" d="M30.552,9a1,1,0,0,1-1.244.577A18.5,18.5,0,0,0,24,8.5a18.431,18.431,0,0,0-5.307,1.072.994.994,0,0,1-1.245-.577l-.372-.93a1,1,0,0,1,.605-1.317A21.472,21.472,0,0,1,24,5.5a21.472,21.472,0,0,1,6.319,1.248,1,1,0,0,1,.605,1.317Z"/><circle cx="24" cy="29" r="5" fill="url(#9HymOnUG~mDdMtSxE8UmKg)"/><path fill="url(#9HymOnUG~mDdMtSxE8UmKh)" d="M37.036,26.569l-11,2.895a8,8,0,0,1-4.072,0l-11-2.895A8,8,0,0,1,5,18.833V13a2,2,0,0,1,2-2H41a2,2,0,0,1,2,2v5.833A8,8,0,0,1,37.036,26.569Z"/><path fill="url(#9HymOnUG~mDdMtSxE8UmKi)" d="M24,27.728a5.941,5.941,0,0,1-1.527-.2l-11-2.894A6,6,0,0,1,7,18.833V11H8v7.833a5,5,0,0,0,3.727,4.835l11,2.895a5.03,5.03,0,0,0,2.544,0l11-2.895A5,5,0,0,0,40,18.833V11h1v7.833a6,6,0,0,1-4.473,5.8l-11,2.894A5.947,5.947,0,0,1,24,27.728Z"/><path fill="#26150a" d="M26,24H22a2.006,2.006,0,0,0-2,2v2.95l.5.13.51.13A1.477,1.477,0,0,1,21,29V26a1,1,0,0,1,1-1h4a1,1,0,0,1,1,1v3a1.477,1.477,0,0,1-.01.21l.51-.13.5-.13V26A2.006,2.006,0,0,0,26,24Z" opacity=".1"/><path fill="#26150a" d="M26,24.5H22A1.5,1.5,0,0,0,20.5,26v3.08l.51.13A1.477,1.477,0,0,1,21,29V26a1,1,0,0,1,1-1h4a1,1,0,0,1,1,1v3a1.477,1.477,0,0,1-.01.21l.51-.13V26A1.5,1.5,0,0,0,26,24.5Z" opacity=".25"/><path fill="url(#9HymOnUG~mDdMtSxE8UmKa)" d="M21,26h6a0,0,0,0,1,0,0v3a3,3,0,0,1-3,3h0a3,3,0,0,1-3-3V26A0,0,0,0,1,21,26Z"/><path fill="url(#9HymOnUG~mDdMtSxE8UmKj)" d="M22,25h4a1,1,0,0,1,1,1v1a0,0,0,0,1,0,0H21a0,0,0,0,1,0,0V26A1,1,0,0,1,22,25Z"/></g></svg>