<svg xmlns="http://www.w3.org/2000/svg" xmlns:xlink="http://www.w3.org/1999/xlink" viewBox="0 0 48 48" width="48px" height="48px"><defs><linearGradient id="ruTzm9rYN86kfbr1BKAUSc" x1="13.5" x2="13.5" y1="7" y2="41" gradientTransform="matrix(1.03 0 0 1 10.091 0)" gradientUnits="userSpaceOnUse"><stop offset="0" stop-color="#6e6e6e"/><stop offset="1" stop-color="#454545"/></linearGradient><linearGradient id="ruTzm9rYN86kfbr1BKAUSa" x1="-3" x2="30" y1="24" y2="24" gradientTransform="matrix(1.03 0 0 1 10.091 0)" gradientUnits="userSpaceOnUse"><stop offset="0" stop-color="#6e6e6e" stop-opacity="0"/><stop offset=".615" stop-color="#666" stop-opacity=".089"/><stop offset=".837" stop-color="#494949" stop-opacity=".412"/><stop offset=".994" stop-color="#171717" stop-opacity=".972"/><stop offset="1" stop-color="#141415"/></linearGradient><linearGradient id="ruTzm9rYN86kfbr1BKAUSd" x1="-531" x2="-498" y1="296" y2="296" gradientTransform="matrix(1.03 0 0 1 554.091 -272)" xlink:href="#ruTzm9rYN86kfbr1BKAUSa"/><linearGradient id="ruTzm9rYN86kfbr1BKAUSe" x1="-795" x2="-762" y1="-248" y2="-248" gradientTransform="matrix(1.03 0 0 1 826.091 272)" xlink:href="#ruTzm9rYN86kfbr1BKAUSa"/><linearGradient id="ruTzm9rYN86kfbr1BKAUSf" x1="-267" x2="-234" y1="-520" y2="-520" gradientTransform="matrix(1.03 0 0 1 282.091 544)" xlink:href="#ruTzm9rYN86kfbr1BKAUSa"/><linearGradient id="ruTzm9rYN86kfbr1BKAUSg" x1="13.5" x2="13.5" y1="13" y2="35" gradientTransform="matrix(1.03 0 0 1 10.091 0)" gradientUnits="userSpaceOnUse"><stop offset="0" stop-color="#fff"/><stop offset="1" stop-color="#e8e8e8"/></linearGradient><linearGradient id="ruTzm9rYN86kfbr1BKAUSb" x1="2.824" x2="24.176" y1="24" y2="24" gradientTransform="matrix(1.03 0 0 1 10.091 0)" gradientUnits="userSpaceOnUse"><stop offset="0" stop-color="#fff" stop-opacity="0"/><stop offset=".398" stop-color="#fefefe" stop-opacity=".01"/><stop offset=".541" stop-color="#fcfbfc" stop-opacity=".047"/><stop offset=".643" stop-color="#f7f6f7" stop-opacity=".111"/><stop offset=".726" stop-color="#f0eef1" stop-opacity=".203"/><stop offset=".797" stop-color="#e7e5e8" stop-opacity=".323"/><stop offset=".859" stop-color="#dcd8de" stop-opacity=".471"/><stop offset=".916" stop-color="#cfcad1" stop-opacity=".647"/><stop offset=".966" stop-color="#c1bac3" stop-opacity=".844"/><stop offset="1" stop-color="#b5adb8"/></linearGradient><linearGradient id="ruTzm9rYN86kfbr1BKAUSh" x1="-525.176" x2="-503.824" y1="296" y2="296" gradientTransform="matrix(1.03 0 0 1 554.091 -272)" xlink:href="#ruTzm9rYN86kfbr1BKAUSb"/><linearGradient id="ruTzm9rYN86kfbr1BKAUSi" x1="-789.176" x2="-767.824" y1="-248" y2="-248" gradientTransform="matrix(1.03 0 0 1 826.091 272)" xlink:href="#ruTzm9rYN86kfbr1BKAUSb"/><linearGradient id="ruTzm9rYN86kfbr1BKAUSj" x1="-261.176" x2="-239.824" y1="-520" y2="-520" gradientTransform="matrix(1.03 0 0 1 282.091 544)" xlink:href="#ruTzm9rYN86kfbr1BKAUSb"/></defs><g data-name="black square button"><rect width="34" height="34" x="7" y="7" fill="url(#ruTzm9rYN86kfbr1BKAUSc)" rx="3"/><g opacity=".5"><rect width="34" height="34" x="7" y="7" fill="url(#ruTzm9rYN86kfbr1BKAUSa)" rx="3"/><rect width="34" height="34" x="7" y="7" fill="url(#ruTzm9rYN86kfbr1BKAUSd)" rx="3" transform="rotate(-90 24 24)"/><rect width="34" height="34" x="7" y="7" fill="url(#ruTzm9rYN86kfbr1BKAUSe)" rx="3" transform="rotate(180 24 24)"/><rect width="34" height="34" x="7" y="7" fill="url(#ruTzm9rYN86kfbr1BKAUSf)" rx="3" transform="rotate(90 24 24)"/></g><rect width="22" height="22" x="13" y="13" fill="url(#ruTzm9rYN86kfbr1BKAUSg)" rx="3"/><g opacity=".5"><rect width="22" height="22" x="13" y="13" fill="url(#ruTzm9rYN86kfbr1BKAUSb)" rx="3"/><rect width="22" height="22" x="13" y="13" fill="url(#ruTzm9rYN86kfbr1BKAUSh)" rx="3" transform="rotate(-90 24 24)"/><rect width="22" height="22" x="13" y="13" fill="url(#ruTzm9rYN86kfbr1BKAUSi)" rx="3" transform="rotate(180 24 24)"/><rect width="22" height="22" x="13" y="13" fill="url(#ruTzm9rYN86kfbr1BKAUSj)" rx="3" transform="rotate(90 24 24)"/></g></g></svg>