<svg xmlns="http://www.w3.org/2000/svg" xmlns:xlink="http://www.w3.org/1999/xlink" viewBox="0 0 48 48" width="48px" height="48px"><defs><linearGradient id="~Sdd~fuQttemDQjkvqMNkb" x1="51.841" x2="80.497" y1="-10.679" y2="18.846" gradientTransform="matrix(1.03 0 0 1 -44.174 19.917)" gradientUnits="userSpaceOnUse"><stop offset="0" stop-color="#829fff"/><stop offset="1" stop-color="#1341d6"/></linearGradient><linearGradient id="~Sdd~fuQttemDQjkvqMNka" x1="50.989" x2="81.349" y1="4.083" y2="4.083" gradientTransform="matrix(1.03 0 0 1 -44.174 19.917)" gradientUnits="userSpaceOnUse"><stop offset="0" stop-color="#7595ff" stop-opacity="0"/><stop offset=".406" stop-color="#7494fe" stop-opacity=".011"/><stop offset=".553" stop-color="#6f8ffa" stop-opacity=".052"/><stop offset=".657" stop-color="#6788f4" stop-opacity=".123"/><stop offset=".741" stop-color="#5c7deb" stop-opacity=".225"/><stop offset=".813" stop-color="#4d6fdf" stop-opacity=".358"/><stop offset=".877" stop-color="#3b5ed1" stop-opacity=".522"/><stop offset=".935" stop-color="#2549bf" stop-opacity=".717"/><stop offset=".987" stop-color="#0c32ac" stop-opacity=".936"/><stop offset="1" stop-color="#052ba6"/></linearGradient><linearGradient id="~Sdd~fuQttemDQjkvqMNkc" x1="-306.349" x2="-275.989" y1="140.083" y2="140.083" gradientTransform="matrix(1.03 0 0 1 323.992 -116.083)" xlink:href="#~Sdd~fuQttemDQjkvqMNka"/><linearGradient id="~Sdd~fuQttemDQjkvqMNkd" x1="-438.349" x2="-407.989" y1="-228.083" y2="-228.083" gradientTransform="matrix(1.03 0 0 1 459.992 252.083)" xlink:href="#~Sdd~fuQttemDQjkvqMNka"/><linearGradient id="~Sdd~fuQttemDQjkvqMNke" x1="-81.011" x2="-50.651" y1="-364.083" y2="-364.083" gradientTransform="matrix(1.03 0 0 1 91.826 388.083)" xlink:href="#~Sdd~fuQttemDQjkvqMNka"/></defs><rect width="31.28" height="31.28" x="8.36" y="8.36" fill="url(#~Sdd~fuQttemDQjkvqMNkb)" rx="3" transform="rotate(45 24 24)"/><g opacity=".5"><rect width="31.28" height="31.28" x="8.36" y="8.36" fill="url(#~Sdd~fuQttemDQjkvqMNka)" rx="3" transform="rotate(45 24 24)"/><rect width="31.28" height="31.28" x="8.36" y="8.36" fill="url(#~Sdd~fuQttemDQjkvqMNkc)" rx="3" transform="rotate(-45 24 24)"/><rect width="31.28" height="31.28" x="8.36" y="8.36" fill="url(#~Sdd~fuQttemDQjkvqMNkd)" rx="3" transform="rotate(-135 24 24)"/><rect width="31.28" height="31.28" x="8.36" y="8.36" fill="url(#~Sdd~fuQttemDQjkvqMNke)" rx="3" transform="rotate(135 24 24)"/></g></svg>