<?xml version="1.0" encoding="utf-8"?>
<!-- Generator: Adobe Illustrator 27.7.0, SVG Export Plug-In . SVG Version: 6.00 Build 0)  -->
<svg version="1.1" id="Layer_1" xmlns="http://www.w3.org/2000/svg" xmlns:xlink="http://www.w3.org/1999/xlink" x="0px" y="0px"
	 viewBox="0 0 24 24" style="enable-background:new 0 0 24 24;" xml:space="preserve">
<style type="text/css">
	.st0{fill:none;}
	.st1{fill:none;stroke:#429288;stroke-width:0;stroke-linecap:round;stroke-linejoin:round;}
	.st2{fill:#429288;}
	.st3{fill:#68D1BF;}
	.st4{fill:#AEF4E4;}
</style>
<g>
	<path class="st0" d="M16.7,14.4l-2-3.4V6.8H9.1V11l-1.7,3.4c-0.6,1-1,2-1.3,3.1h11.7C17.7,16.3,17.3,15.3,16.7,14.4z"/>
	<line class="st1" x1="20" y1="23.5" x2="20" y2="23.5"/>
	<path class="st2" d="M18.2,13.1l-1.6-2.8V6.7c0-0.9-0.8-1.7-1.7-1.7H9.1C8.2,5,7.4,5.8,7.4,6.7v3.7l-1.6,2.8
		C4.6,15.1,4,17.3,4,19.5v4h2v-0.1l0,0v-6h0.2c0.3-1.1,0.7-2.1,1.3-3.1L9.1,11V6.8h5.6V11l2,3.4c0.6,1,1,1.9,1.1,3.1H18v6l-0.1,0
		v0.2H20v-4C20,17.3,19.4,15,18.2,13.1z"/>
	<path class="st3" d="M13.3,0.8L13.3,0.8c0-0.2-0.2-0.3-0.4-0.3h-1.7c-0.2,0-0.3,0.1-0.4,0.3L9.7,5h4.6L13.3,0.8z"/>
	<polygon class="st4" points="18,17.4 17.8,17.4 6.2,17.4 6,17.4 6,23.4 6,23.4 17.9,23.4 18,23.4 	"/>
</g>
</svg>
