<svg width="200" height="80" viewBox="0 0 200 80" fill="none" xmlns="http://www.w3.org/2000/svg">
<g clip-path="url(#clip0_1195_28971)">
<path d="M28.377 42.3406H24.0012C23.0376 42.3406 22.8676 42.4064 22.3801 43.2176C21.8298 44.2344 20.9778 45.0689 19.9335 45.6139C18.8891 46.1589 17.7002 46.3896 16.5192 46.2763C15.6866 46.2734 14.8625 46.1133 14.0933 45.8049C13.3429 45.4859 12.662 45.032 12.0868 44.4674C11.5063 43.8879 11.0515 43.2021 10.7491 42.4502C10.4294 41.6996 10.2713 40.8939 10.2843 40.0822V39.6876C10.3117 38.3045 10.8087 36.9686 11.6987 35.8857C12.5887 34.8028 13.8224 34.0331 15.2095 33.6953C16.5966 33.3574 18.06 33.4702 19.3743 34.0162C20.6886 34.5622 21.7806 35.5111 22.4821 36.7166C22.9582 37.5279 23.0376 37.4292 24.0012 37.4292H28.3656" stroke="#06263D" stroke-miterlimit="10"/>
<path d="M28.3996 42.2748C28.2296 43.1189 25.6789 43.8973 25.1461 44.5441C24.4836 44.8121 23.9107 45.2522 23.491 45.8158C22.6611 46.7623 21.6139 47.5081 20.4329 47.9934C19.2519 48.4788 17.9699 48.6904 16.6893 48.6114C14.3128 48.6146 12.0266 47.731 10.307 46.1447C9.44605 45.3627 8.75939 44.4189 8.2891 43.3711C7.80816 42.3368 7.55712 41.2163 7.55225 40.0822V39.5779C7.60836 37.9347 8.16266 36.3437 9.14623 35.0027C10.1298 33.6617 11.4993 32.6299 13.0843 32.0354C14.6573 31.4482 16.3657 31.2853 18.0269 31.564C19.7647 31.8004 21.3926 32.5246 22.7088 33.647C23.2335 34.1766 23.8831 34.5753 24.602 34.8091C25.3955 35.5436 28.1049 36.4973 28.3316 37.5607" stroke="#06263D" stroke-miterlimit="10"/>
<path d="M28.4109 42.1542C27.4247 47.1314 23.0035 50.9245 16.7686 50.9245C15.2481 50.9624 13.7349 50.7099 12.3155 50.1813C10.8962 49.6527 9.59857 48.8585 8.49709 47.8442C7.3956 46.83 6.51185 45.6155 5.89648 44.2704C5.2811 42.9253 4.94617 41.476 4.91089 40.0055C4.91089 34.0088 9.81949 29.1193 16.7686 29.1193C23.1169 29.1193 27.368 32.7919 28.3769 37.6923" stroke="#06263D" stroke-miterlimit="10"/>
<path d="M22.7994 42.3406H27.1639C28.1275 42.3406 28.2975 42.4064 28.785 43.2176C29.3352 44.2344 30.1873 45.0689 31.2316 45.6139C32.2759 46.1589 33.4649 46.3896 34.6458 46.2763C35.4895 46.2842 36.3261 46.1271 37.1053 45.8143C37.8846 45.5016 38.5904 45.0397 39.1803 44.4564C39.7663 43.8833 40.2253 43.2006 40.5293 42.4502C40.8204 41.6938 40.9515 40.8885 40.9148 40.0822V39.6876C40.8874 38.3045 40.3904 36.9686 39.5004 35.8857C38.6103 34.8028 37.3767 34.0331 35.9896 33.6953C34.6025 33.3574 33.139 33.4702 31.8248 34.0162C30.5105 34.5622 29.4185 35.5111 28.717 36.7166C28.2408 37.5279 28.1615 37.4292 27.1979 37.4292H22.8335" stroke="#F05251" stroke-miterlimit="10"/>
<path d="M22.7655 42.2748C22.9355 43.1189 25.4862 43.8973 26.019 44.5441C26.6799 44.8098 27.2497 45.2506 27.6628 45.8158C28.4944 46.7603 29.5419 47.5046 30.7225 47.9899C31.903 48.4751 33.1842 48.6879 34.4645 48.6114C35.6282 48.6073 36.7812 48.3954 37.8654 47.9865C38.9657 47.5637 39.9706 46.9382 40.8241 46.1447C41.6988 45.3646 42.4006 44.421 42.8873 43.3711C43.3449 42.3311 43.5802 41.2124 43.5788 40.0822C43.5788 39.9945 43.5788 39.7095 43.5788 39.6218C43.5227 37.9786 42.9684 36.3876 41.9849 35.0466C41.0013 33.7056 39.6318 32.6737 38.0468 32.0793C36.4763 31.4978 34.7732 31.335 33.1155 31.6079C31.3764 31.8398 29.7473 32.5646 28.4336 33.6908C27.906 34.2223 27.2523 34.6212 26.5291 34.8529C25.7469 35.5874 23.0262 36.5412 22.8108 37.6046" stroke="#F05251" stroke-miterlimit="10"/>
<path d="M22.7314 42.1542C23.7404 47.1314 28.1388 50.9245 34.3851 50.9245C35.9056 50.9624 37.4188 50.7099 38.8382 50.1813C40.2576 49.6527 41.5551 48.8585 42.6566 47.8442C43.7581 46.83 44.6419 45.6155 45.2572 44.2704C45.8726 42.9253 46.2075 41.476 46.2428 40.0055C46.2428 34.0088 41.3342 29.1193 34.3851 29.1193C28.0368 29.1193 23.7744 32.7919 22.7655 37.6923" stroke="#F05251" stroke-miterlimit="10"/>
</g>
<path d="M72.7323 37.7413H67.8811C67.4405 36.6596 66.7529 35.7741 65.8181 35.0848C64.8833 34.3955 63.7444 34.0509 62.4013 34.0509C60.6177 34.0509 59.1672 34.6182 58.0497 35.7529C56.943 36.877 56.3897 38.2874 56.3897 39.9841C56.3897 41.6808 56.943 43.0965 58.0497 44.2312C59.1672 45.3552 60.6177 45.9173 62.4013 45.9173C63.7444 45.9173 64.8833 45.5779 65.8181 44.8993C66.7529 44.21 67.4405 43.3192 67.8811 42.2269H72.7323C72.2702 44.6129 71.1206 46.5058 69.2832 47.9056C67.4459 49.2948 65.1519 49.9894 62.4013 49.9894C59.2531 49.9894 56.6529 49.0403 54.6007 47.1421C52.5592 45.2333 51.5385 42.8473 51.5385 39.9841C51.5385 37.1209 52.5592 34.7402 54.6007 32.842C56.6529 30.9332 59.2531 29.9788 62.4013 29.9788C65.1519 29.9788 67.4405 30.6787 69.2671 32.0785C71.0937 33.4677 72.2488 35.3552 72.7323 37.7413Z" fill="#04263D"/>
<path d="M75.6978 49.4327V30.5673H80.3878V33.176H80.4523C81.7094 31.0657 83.3265 30.0106 85.3035 30.0106H85.7709V34.7031H84.6105C83.493 34.7031 82.5314 35.0795 81.7255 35.8324C80.9197 36.5854 80.4738 37.5133 80.3878 38.6161V49.4327H75.6978Z" fill="#04263D"/>
<path d="M107.851 39.9841C107.851 40.5885 107.765 41.2725 107.593 42.0361H92.1693C92.438 43.1177 93.0719 44.0456 94.0711 44.8197C95.0704 45.5939 96.2201 45.9809 97.5202 45.9809C98.4657 45.9809 99.3092 45.7688 100.051 45.3446C100.803 44.9205 101.388 44.3955 101.807 43.7699H106.9C106.223 45.6575 105.025 47.1686 103.306 48.3033C101.587 49.4274 99.6584 49.9894 97.5202 49.9894C94.6406 49.9894 92.1908 49.0297 90.1708 47.1103C88.1616 45.1803 87.157 42.8049 87.157 39.9841C87.157 37.1633 88.167 34.7985 90.1869 32.8897C92.2177 30.9703 94.6836 30.0106 97.5846 30.0106C100.421 30.0106 102.839 30.9809 104.837 32.9215C106.847 34.8515 107.851 37.2057 107.851 39.9841ZM92.2338 38.1548H102.839C102.592 36.9565 102.001 35.9544 101.066 35.1485C100.131 34.3319 98.9707 33.9236 97.5846 33.9236C96.2201 33.9236 95.0489 34.3319 94.0711 35.1485C93.0934 35.9544 92.4809 36.9565 92.2338 38.1548Z" fill="#04263D"/>
<path d="M126.386 39.9841C126.386 38.3934 125.816 37.0308 124.677 35.8961C123.549 34.7614 122.174 34.1941 120.551 34.1941C118.94 34.1941 117.559 34.7667 116.409 35.912C115.27 37.0467 114.701 38.404 114.701 39.9841C114.701 41.596 115.27 42.9745 116.409 44.1198C117.559 45.2545 118.94 45.8218 120.551 45.8218C122.185 45.8218 123.565 45.2545 124.693 44.1198C125.822 42.9745 126.386 41.596 126.386 39.9841ZM126.386 49.4327V46.4104H126.321C125.709 47.4072 124.86 48.2556 123.775 48.9555C122.7 49.6448 121.427 49.9894 119.955 49.9894C117.14 49.9894 114.744 49.035 112.767 47.1262C110.801 45.2068 109.817 42.8261 109.817 39.9841C109.817 37.1633 110.801 34.7985 112.767 32.8897C114.744 30.9703 117.14 30.0106 119.955 30.0106C122.555 30.0106 124.677 31.1082 126.321 33.3033H126.386V30.5673H131.076V49.4327H126.386Z" fill="#04263D"/>
<path d="M135.766 34.2895H134.041V30.5673H135.766V26.3043H140.456V30.5673H143.728V34.2895H140.456V44.1835C140.456 44.5122 140.563 44.7879 140.778 45.0106C141.004 45.2227 141.267 45.3287 141.568 45.3287H143.728V49.4327H141.568C139.827 49.4327 138.425 48.929 137.361 47.9215C136.298 46.9141 135.766 45.562 135.766 43.8653V34.2895Z" fill="#04263D"/>
<path d="M166.001 39.9841C166.001 40.5885 165.915 41.2725 165.743 42.0361H150.319C150.588 43.1177 151.222 44.0456 152.221 44.8197C153.22 45.5939 154.37 45.9809 155.67 45.9809C156.616 45.9809 157.459 45.7688 158.201 45.3446C158.953 44.9205 159.538 44.3955 159.957 43.7699H165.05C164.373 45.6575 163.175 47.1686 161.456 48.3033C159.737 49.4274 157.808 49.9894 155.67 49.9894C152.791 49.9894 150.341 49.0297 148.321 47.1103C146.312 45.1803 145.307 42.8049 145.307 39.9841C145.307 37.1633 146.317 34.7985 148.337 32.8897C150.368 30.9703 152.834 30.0106 155.735 30.0106C158.571 30.0106 160.989 30.9809 162.987 32.9215C164.997 34.8515 166.001 37.2057 166.001 39.9841ZM150.384 38.1548H160.989C160.742 36.9565 160.151 35.9544 159.216 35.1485C158.281 34.3319 157.121 33.9236 155.735 33.9236C154.37 33.9236 153.199 34.3319 152.221 35.1485C151.243 35.9544 150.631 36.9565 150.384 38.1548Z" fill="#04263D"/>
<path d="M169.305 49.4327V25H173.995V49.4327H169.305Z" fill="#04263D"/>
<path d="M195.769 30.5673L186.196 55H181.377L183.714 49.0032L176.461 30.5673H181.312L186.099 43.1495H186.164L190.918 30.5673H195.769Z" fill="#04263D"/>
<defs>
<clipPath id="clip0_1195_28971">
<rect width="42.6923" height="23.0769" fill="white" transform="translate(4.23071 28.4615)"/>
</clipPath>
</defs>
</svg>
