<?xml version="1.0" encoding="utf-8"?>
<!-- Generator: Adobe Illustrator 27.7.0, SVG Export Plug-In . SVG Version: 6.00 Build 0)  -->
<svg version="1.1" id="Layer_1" xmlns="http://www.w3.org/2000/svg" xmlns:xlink="http://www.w3.org/1999/xlink" x="0px" y="0px"
	 viewBox="0 0 24 24" style="enable-background:new 0 0 24 24;" xml:space="preserve">
<style type="text/css">
	.st0{fill:#FDF19F;}
	.st1{fill:#FDF2A0;}
	.st2{fill:#FDF2A1;}
	.st3{fill:#FDF2A2;}
	.st4{fill:#FDF2A3;}
	.st5{fill:#FDF2A4;}
	.st6{fill:#FDF3A5;}
	.st7{fill:#FDF3A6;}
	.st8{fill:#FDF3A7;}
	.st9{fill:#FDF3A8;}
	.st10{fill:#FDF3A9;}
	.st11{fill:#FDF3AA;}
	.st12{fill:#FDF4AB;}
	.st13{fill:#FDF4AC;}
	.st14{fill:#FDF4AD;}
	.st15{fill:#FDF4AE;}
	.st16{fill:#FDF4AF;}
	.st17{fill:#FCF5B1;}
	.st18{fill:#FCF5B2;}
	.st19{fill:#FCF5B3;}
	.st20{fill:#FCF5B4;}
	.st21{fill:#FCF5B5;}
	.st22{fill:#FCF6B6;}
	.st23{fill:#FCF6B7;}
	.st24{fill:#FCF6B8;}
	.st25{fill:#FCF6B9;}
	.st26{fill:#FCF6BA;}
	.st27{fill:#FCF6BB;}
	.st28{fill:#FCF7BC;}
	.st29{fill:#FCF7BD;}
	.st30{fill:#FCF7BE;}
	.st31{fill:#FCF7BF;}
	.st32{fill:#FCF7C0;}
	.st33{fill:#FCF8C1;}
	.st34{fill:#FCF8C2;}
	.st35{fill:#FCF8C3;}
	.st36{fill:#FCF8C4;}
	.st37{fill:#FCF8C5;}
	.st38{fill:#FCF8C6;}
	.st39{fill:#FCF9C7;}
	.st40{fill:#FCF9C8;}
	.st41{fill:#E2B53E;}
	.st42{fill:#F5D565;}
</style>
<g>
	<polygon class="st0" points="15.2,21.2 15.2,20.7 14.6,21.2 	"/>
	<polygon class="st1" points="14.6,21.2 15.2,20.7 15.2,20 13.8,21.2 	"/>
	<polygon class="st1" points="20.5,15.2 21.2,15.2 21.2,14.6 	"/>
	<polygon class="st2" points="21.2,13.8 19.7,15.2 20.5,15.2 21.2,14.6 	"/>
	<polygon class="st2" points="13.8,21.2 15.2,20 15.2,19.2 13,21.2 	"/>
	<polygon class="st3" points="13,21.2 15.2,19.2 15.2,18.5 12.2,21.2 	"/>
	<polygon class="st3" points="21.2,13.1 18.9,15.2 19.7,15.2 21.2,13.8 	"/>
	<polygon class="st4" points="21.2,12.4 18.1,15.2 18.9,15.2 21.2,13.1 	"/>
	<path class="st4" d="M12.2,21.2l3-2.7V18c0-0.1,0-0.2,0-0.2l-3.9,3.5H12.2z"/>
	<path class="st5" d="M11.4,21.2l3.9-3.5c0-0.3,0.1-0.7,0.3-1l-4.9,4.5H11.4z"/>
	<path class="st5" d="M21.2,11.7l-4.2,3.8c0.3-0.1,0.6-0.2,0.9-0.2h0.1l3.2-2.9V11.7z"/>
	<path class="st6" d="M21.2,10.9L9.8,21.2h0.8l4.9-4.5c0.3-0.6,0.9-1.1,1.5-1.4l4.2-3.8V10.9z"/>
	<polygon class="st7" points="21.2,10.2 9,21.2 9.8,21.2 21.2,10.9 	"/>
	<polygon class="st8" points="21.2,9.5 8.2,21.2 9,21.2 21.2,10.2 	"/>
	<polygon class="st9" points="21.2,8.8 7.4,21.2 8.2,21.2 21.2,9.5 	"/>
	<polygon class="st10" points="21.2,8 6.6,21.2 7.4,21.2 21.2,8.8 	"/>
	<polygon class="st11" points="21.2,7.3 5.8,21.2 6.6,21.2 21.2,8 	"/>
	<polygon class="st12" points="21.2,6.6 5,21.2 5.8,21.2 21.2,7.3 	"/>
	<polygon class="st13" points="21.2,5.9 4.2,21.2 5,21.2 21.2,6.6 	"/>
	<path class="st14" d="M21.2,5.1l-17.8,16c0.2,0.1,0.3,0.1,0.5,0.1h0.2L21.2,5.9V5.1z"/>
	<path class="st15" d="M21.2,4.4L3.1,20.8c0.1,0.1,0.3,0.3,0.4,0.3l17.8-16V4.4z"/>
	<path class="st16" d="M21.2,4c0-0.1,0-0.2-0.1-0.3L2.8,20.3c0,0.2,0.1,0.4,0.2,0.5L21.2,4.4V4z"/>
	<path class="st17" d="M21,3.2L2.8,19.6V20c0,0.1,0,0.2,0.1,0.3L21.2,3.7C21.2,3.6,21.1,3.4,21,3.2z"/>
	<path class="st18" d="M20.5,2.9l-17.8,16v0.7L21,3.2C20.8,3.1,20.7,3,20.5,2.9z"/>
	<path class="st19" d="M20,2.8h-0.1L2.8,18.2v0.7l17.8-16C20.4,2.8,20.2,2.8,20,2.8z"/>
	<polygon class="st20" points="19.1,2.8 2.8,17.4 2.8,18.2 19.9,2.8 	"/>
	<polygon class="st21" points="18.3,2.8 2.8,16.7 2.8,17.4 19.1,2.8 	"/>
	<polygon class="st22" points="17.5,2.8 2.8,16 2.8,16.7 18.3,2.8 	"/>
	<polygon class="st23" points="16.7,2.8 2.8,15.3 2.8,16 17.5,2.8 	"/>
	<polygon class="st24" points="15.9,2.8 2.8,14.6 2.8,15.3 16.7,2.8 	"/>
	<polygon class="st25" points="15.1,2.8 2.8,13.8 2.8,14.6 15.9,2.8 	"/>
	<polygon class="st26" points="14.3,2.8 2.8,13.1 2.8,13.8 15.1,2.8 	"/>
	<polygon class="st27" points="13.5,2.8 2.8,12.4 2.8,13.1 14.3,2.8 	"/>
	<polygon class="st28" points="12.6,2.8 2.8,11.7 2.8,12.4 13.5,2.8 	"/>
	<polygon class="st29" points="11.8,2.8 2.8,10.9 2.8,11.7 12.6,2.8 	"/>
	<polygon class="st30" points="11,2.8 2.8,10.2 2.8,10.9 11.8,2.8 	"/>
	<polygon class="st31" points="10.2,2.8 2.8,9.5 2.8,10.2 11,2.8 	"/>
	<polygon class="st32" points="9.4,2.8 2.8,8.8 2.8,9.5 10.2,2.8 	"/>
	<polygon class="st33" points="8.6,2.8 2.8,8 2.8,8.8 9.4,2.8 	"/>
	<polygon class="st34" points="7.8,2.8 2.8,7.3 2.8,8 8.6,2.8 	"/>
	<polygon class="st35" points="7,2.8 2.8,6.6 2.8,7.3 7.8,2.8 	"/>
	<polygon class="st36" points="6.2,2.8 2.8,5.9 2.8,6.6 7,2.8 	"/>
	<polygon class="st37" points="5.4,2.8 2.8,5.1 2.8,5.9 6.2,2.8 	"/>
	<polygon class="st38" points="4.6,2.8 2.8,4.4 2.8,5.1 5.4,2.8 	"/>
	<path class="st39" d="M4,2.8c-0.1,0-0.2,0-0.3,0.1L2.8,3.6c0,0.1-0.1,0.2-0.1,0.4v0.4l1.9-1.7H4z"/>
	<path class="st40" d="M2.8,3.6l0.9-0.8C3.3,2.9,3,3.2,2.8,3.6z"/>
	<path class="st41" d="M22.8,4c0-1.5-1.2-2.8-2.8-2.8H4C2.5,1.2,1.2,2.5,1.2,4v16c0,1.5,1.2,2.8,2.8,2.8h12l0.5-0.2l6-6l0.2-0.5V4z
		 M16.7,18l0.1-0.4h0c0.1-0.4,0.4-0.7,0.7-0.8l0.3-0.1H18h2.2h0l-3.5,3.5L16.7,18z M20.5,15.2h-0.8h-0.8h-0.8H18
		c-0.3,0-0.6,0.1-0.9,0.2c-0.7,0.2-1.2,0.7-1.5,1.4c-0.1,0.3-0.2,0.6-0.3,1c0,0.1,0,0.2,0,0.2v0.5v0.7V20v0.7v0.6h-0.6h-0.8H13h-0.8
		h-0.8h-0.8H9.8H9H8.2H7.4H6.6H5.8H5H4.2H4c-0.2,0-0.4,0-0.5-0.1c-0.2-0.1-0.3-0.2-0.4-0.3c-0.1-0.1-0.2-0.3-0.2-0.5
		c0-0.1-0.1-0.2-0.1-0.3v-0.4v-0.7v-0.7v-0.7v-0.7V16v-0.7v-0.7v-0.7v-0.7v-0.7v-0.7v-0.7v-0.7V9.5V8.8V8V7.3V6.6V5.9V5.1V4.4V4
		c0-0.1,0-0.3,0.1-0.4C3,3.2,3.3,2.9,3.7,2.8c0.1,0,0.2-0.1,0.3-0.1h0.6h0.8h0.8H7h0.8h0.8h0.8h0.8H11h0.8h0.8h0.8h0.8h0.8h0.8h0.8
		h0.8h0.8h0.8h0.8H20c0.2,0,0.4,0.1,0.5,0.1C20.7,3,20.8,3.1,21,3.2c0.1,0.1,0.2,0.3,0.2,0.5c0,0.1,0.1,0.2,0.1,0.3v0.4v0.7v0.7v0.7
		v0.7V8v0.7v0.7v0.7v0.7v0.7v0.7v0.7v0.7v0.7v0.7H20.5z"/>
	<path class="st42" d="M20.2,16.8L20.2,16.8H18h-0.1l-0.3,0.1c-0.4,0.1-0.7,0.4-0.7,0.8h0L16.7,18l0,2.3L20.2,16.8z"/>
</g>
</svg>
