<svg width="20" height="20" viewBox="0 0 20 20" fill="none" xmlns="http://www.w3.org/2000/svg">
<path fill-rule="evenodd" clip-rule="evenodd" d="M6.66667 2.3335H4.58333C3.57081 2.3335 2.75 3.15431 2.75 4.16683V15.8335C2.75 16.846 3.57081 17.6668 4.58333 17.6668H6.66667L6.66667 2.3335ZM8.16667 17.6668H15.4167C16.4292 17.6668 17.25 16.846 17.25 15.8335V7.50016H8.16667L8.16667 17.6668ZM8.16667 6.00016V2.3335H15.4167C16.4292 2.3335 17.25 3.15431 17.25 4.16683V6.00016H8.16667ZM4.58333 0.833496C2.74238 0.833496 1.25 2.32588 1.25 4.16683V15.8335C1.25 17.6744 2.74238 19.1668 4.58333 19.1668H15.4167C17.2576 19.1668 18.75 17.6744 18.75 15.8335V4.16683C18.75 2.32588 17.2576 0.833496 15.4167 0.833496H4.58333Z" fill="white"/>
</svg>
