<?xml version="1.0" encoding="utf-8"?>
<!-- Generator: Adobe Illustrator 27.7.0, SVG Export Plug-In . SVG Version: 6.00 Build 0)  -->
<svg version="1.1" id="Layer_1" xmlns="http://www.w3.org/2000/svg" xmlns:xlink="http://www.w3.org/1999/xlink" x="0px" y="0px"
	 viewBox="0 0 24 24" style="enable-background:new 0 0 24 24;" xml:space="preserve">
<style type="text/css">
	.st0{fill:#C3E5FA;}
	.st1{fill:#9DC4F8;}
	.st2{fill:#D7F9FD;}
	.st3{fill:#08436B;}
</style>
<g>
	<path class="st0" d="M6.6,7.8V6.1V2.5H5.5C4.2,2.5,3,3.6,3,5V19c0,1.4,1.1,2.5,2.5,2.5h1.1V7.8z"/>
	<path class="st1" d="M8.1,2.5v3.6H21c0-0.5,0-0.9,0-1.2c-0.1-0.6-0.1-0.9-0.2-1.1c-0.2-0.5-0.6-0.8-1.1-1.1c-0.2-0.1-0.5-0.2-1-0.2
		c-0.6,0-1.4,0-2.5,0H8.1z"/>
	<path class="st2" d="M18.5,21.5c1.4,0,2.5-1.1,2.5-2.5V7.6H8.1v14H18.5z"/>
	<path class="st3" d="M22.5,6.1c0-0.5,0-1,0-1.3C22.4,4,22.2,3.5,22,3.1c-0.4-0.7-1-1.3-1.7-1.7c-0.4-0.2-0.9-0.3-1.6-0.4
		C18,1,17.2,1,16,1H8.3H6.6H5.5c-2.2,0-4,1.8-4,4V19c0,2.2,1.8,4,4,4h2.8v0h10.1c2.2,0,4-1.8,4-4V7.8V7L22.5,6.1L22.5,6.1z M3,19V5
		c0-1.4,1.1-2.5,2.5-2.5h1.1v3.6v1.7v13.8H5.5C4.2,21.5,3,20.4,3,19z M18.6,2.5c0.5,0,0.8,0.1,1,0.2c0.5,0.2,0.8,0.6,1.1,1.1
		c0.1,0.2,0.2,0.4,0.2,1.1c0,0.3,0,0.7,0,1.2H8.1V2.5H16C17.2,2.5,18,2.5,18.6,2.5z M8.1,7.6H21V19c0,1.4-1.1,2.5-2.5,2.5H8.1V7.6z"
		/>
</g>
</svg>
