<?xml version="1.0" encoding="utf-8"?>
<!-- Generator: Adobe Illustrator 27.7.0, SVG Export Plug-In . SVG Version: 6.00 Build 0)  -->
<svg version="1.1" id="Layer_1" xmlns="http://www.w3.org/2000/svg" xmlns:xlink="http://www.w3.org/1999/xlink" x="0px" y="0px"
	 viewBox="0 0 24 24" style="enable-background:new 0 0 24 24;" xml:space="preserve">
<style type="text/css">
	.st0{fill:#FFFFFF;}
	.st1{fill:#2219C4;}
	.st2{fill:#221AC3;}
	.st3{fill:#221AC2;}
	.st4{fill:#221BC1;}
	.st5{fill:#221BC0;}
	.st6{fill:#221CBF;}
	.st7{fill:#221CBE;}
	.st8{fill:#221DBD;}
	.st9{fill:#221DBC;}
	.st10{fill:#221EBB;}
	.st11{fill:#221EBA;}
	.st12{fill:#231FB9;}
	.st13{fill:#231FB8;}
	.st14{fill:#2320B7;}
	.st15{fill:#2320B6;}
	.st16{fill:#2321B5;}
	.st17{fill:#2321B4;}
	.st18{fill:#2322B3;}
	.st19{fill:#2322B2;}
	.st20{fill:#2323B1;}
	.st21{fill:#2323B0;}
	.st22{fill:#2324AF;}
	.st23{fill:#2324AE;}
	.st24{fill:#2325AD;}
	.st25{fill:#2325AC;}
	.st26{fill:#2326AB;}
	.st27{fill:#2326AA;}
	.st28{fill:#2327A9;}
	.st29{fill:#2327A8;}
	.st30{fill:#2328A7;}
	.st31{fill:#2328A6;}
	.st32{fill:#2429A5;}
	.st33{fill:#242AA3;}
	.st34{fill:#242AA2;}
	.st35{fill:#242BA1;}
	.st36{fill:#242BA0;}
	.st37{fill:#242C9F;}
	.st38{fill:#242C9E;}
	.st39{fill:#242D9D;}
	.st40{fill:#242D9C;}
	.st41{fill:#242E9B;}
	.st42{fill:#242E9A;}
	.st43{fill:#242F99;}
	.st44{fill:#242F98;}
	.st45{fill:#243097;}
	.st46{fill:#243096;}
	.st47{fill:#243195;}
	.st48{fill:#243194;}
	.st49{fill:#243293;}
	.st50{fill:#243292;}
	.st51{fill:#243391;}
	.st52{fill:#243390;}
	.st53{fill:#25348F;}
	.st54{fill:#25348E;}
	.st55{fill:#25358D;}
	.st56{fill:#25358C;}
	.st57{fill:#25368B;}
	.st58{fill:#25368A;}
	.st59{fill:#253789;}
	.st60{fill:#253788;}
	.st61{fill:#253887;}
	.st62{fill:#253886;}
	.st63{fill:#253985;}
	.st64{fill:#4BA3E3;}
</style>
<g>
	<path class="st0" d="M21,4c-0.6,0-1-0.4-1-1V2.8H4V3c0,0.6-0.4,1-1,1H2.8v16H3c0.6,0,1,0.4,1,1v0.2h16V21c0-0.6,0.4-1,1-1h0.2V4H21
		z M18.7,5.5v0.2v0.2v0.2v0.2v0.2v0.2v0.2v0.2v0.2v0h-1.5v0V7.2V6.9V6.7V6.5V6.3V6.2h-4.5v0.1v0.2v0.2v0.2v0.2v0.2v0.2v0.2V8v0.2
		v0.2v0.2v0.2V9v0.2v0.2v0.2v0.2V10v0.2v0.2v0.2v0.2v0.2v0.2v0.2v0.2v0.2v0.2v0.2v0.2v0.2v0.2v0.2v0.2v0.2v0.2V14v0.2v0.2v0.2v0.2
		V15v0.2v0.2v0.2v0.2V16v0.2v0.2v0.2v0.2v0.2v0.2v0.2v0.2v0.1h2.5v0.1v0.2v0.2v1H8.7v-1v-0.2v-0.2v-0.1h2.5v-0.1v-0.2v-0.2v-0.2
		v-0.2v-0.2v-0.2v-0.2V16v-0.2v-0.2v-0.2v-0.2V15v-0.2v-0.2v-0.2v-0.2V14v-0.2v-0.2v-0.2v-0.2v-0.2v-0.2v-0.2v-0.2v-0.2v-0.2v-0.2
		v-0.2v-0.2v-0.2v-0.2v-0.2v-0.2v-0.2V10V9.8V9.6V9.4V9.2V9V8.8V8.6V8.4V8.2V8V7.8V7.6V7.4V7.2V6.9V6.7V6.5V6.3V6.2H6.8v0.1v0.2v0.2
		v0.2v0.2v0.2v0H5.3v0V7.2V6.9V6.7V6.5V6.3V6.1V5.9V5.7V5.5V4.8h13.5V5.5z"/>
	<polygon class="st1" points="5.3,5.5 5.3,5.7 18.7,5.7 18.7,5.5 18.7,4.8 5.3,4.8 	"/>
	<rect x="5.3" y="5.7" class="st2" width="13.5" height="0.2"/>
	<rect x="5.3" y="5.9" class="st3" width="13.5" height="0.2"/>
	<polygon class="st4" points="5.3,6.3 6.8,6.3 6.8,6.2 11.2,6.2 11.2,6.3 12.8,6.3 12.8,6.2 17.2,6.2 17.2,6.3 18.7,6.3 18.7,6.1 
		5.3,6.1 	"/>
	<rect x="17.2" y="6.3" class="st5" width="1.5" height="0.2"/>
	<rect x="11.2" y="6.3" class="st5" width="1.5" height="0.2"/>
	<rect x="5.3" y="6.3" class="st5" width="1.5" height="0.2"/>
	<rect x="5.3" y="6.5" class="st6" width="1.5" height="0.2"/>
	<rect x="17.2" y="6.5" class="st6" width="1.5" height="0.2"/>
	<rect x="11.2" y="6.5" class="st6" width="1.5" height="0.2"/>
	<rect x="17.2" y="6.7" class="st7" width="1.5" height="0.2"/>
	<rect x="11.2" y="6.7" class="st7" width="1.5" height="0.2"/>
	<rect x="5.3" y="6.7" class="st7" width="1.5" height="0.2"/>
	<rect x="5.3" y="6.9" class="st8" width="1.5" height="0.2"/>
	<rect x="11.2" y="6.9" class="st8" width="1.5" height="0.2"/>
	<rect x="17.2" y="6.9" class="st8" width="1.5" height="0.2"/>
	<rect x="5.3" y="7.2" class="st9" width="1.5" height="0.2"/>
	<rect x="17.2" y="7.2" class="st9" width="1.5" height="0.2"/>
	<rect x="11.2" y="7.2" class="st9" width="1.5" height="0.2"/>
	<rect x="11.2" y="7.4" class="st10" width="1.5" height="0.2"/>
	<rect x="5.3" y="7.4" class="st10" width="1.5" height="0"/>
	<rect x="17.2" y="7.4" class="st10" width="1.5" height="0"/>
	<rect x="11.2" y="7.6" class="st11" width="1.5" height="0.2"/>
	<rect x="11.2" y="7.8" class="st12" width="1.5" height="0.2"/>
	<rect x="11.2" y="8" class="st13" width="1.5" height="0.2"/>
	<rect x="11.2" y="8.2" class="st14" width="1.5" height="0.2"/>
	<rect x="11.2" y="8.4" class="st15" width="1.5" height="0.2"/>
	<rect x="11.2" y="8.6" class="st16" width="1.5" height="0.2"/>
	<rect x="11.2" y="8.8" class="st17" width="1.5" height="0.2"/>
	<rect x="11.2" y="9" class="st18" width="1.5" height="0.2"/>
	<rect x="11.2" y="9.2" class="st19" width="1.5" height="0.2"/>
	<rect x="11.2" y="9.4" class="st20" width="1.5" height="0.2"/>
	<rect x="11.2" y="9.6" class="st21" width="1.5" height="0.2"/>
	<rect x="11.2" y="9.8" class="st22" width="1.5" height="0.2"/>
	<rect x="11.2" y="10" class="st23" width="1.5" height="0.2"/>
	<rect x="11.2" y="10.2" class="st24" width="1.5" height="0.2"/>
	<rect x="11.2" y="10.5" class="st25" width="1.5" height="0.2"/>
	<rect x="11.2" y="10.7" class="st26" width="1.5" height="0.2"/>
	<rect x="11.2" y="10.9" class="st27" width="1.5" height="0.2"/>
	<rect x="11.2" y="11.1" class="st28" width="1.5" height="0.2"/>
	<rect x="11.2" y="11.3" class="st29" width="1.5" height="0.2"/>
	<rect x="11.2" y="11.5" class="st30" width="1.5" height="0.2"/>
	<rect x="11.2" y="11.7" class="st31" width="1.5" height="0.2"/>
	<rect x="11.2" y="11.9" class="st32" width="1.5" height="0.2"/>
	<rect x="11.2" y="12.1" class="st33" width="1.5" height="0.2"/>
	<rect x="11.2" y="12.3" class="st34" width="1.5" height="0.2"/>
	<rect x="11.2" y="12.5" class="st35" width="1.5" height="0.2"/>
	<rect x="11.2" y="12.7" class="st36" width="1.5" height="0.2"/>
	<rect x="11.2" y="12.9" class="st37" width="1.5" height="0.2"/>
	<rect x="11.2" y="13.1" class="st38" width="1.5" height="0.2"/>
	<rect x="11.2" y="13.3" class="st39" width="1.5" height="0.2"/>
	<rect x="11.2" y="13.5" class="st40" width="1.5" height="0.2"/>
	<rect x="11.2" y="13.8" class="st41" width="1.5" height="0.2"/>
	<rect x="11.2" y="14" class="st42" width="1.5" height="0.2"/>
	<rect x="11.2" y="14.2" class="st43" width="1.5" height="0.2"/>
	<rect x="11.2" y="14.4" class="st44" width="1.5" height="0.2"/>
	<rect x="11.2" y="14.6" class="st45" width="1.5" height="0.2"/>
	<rect x="11.2" y="14.8" class="st46" width="1.5" height="0.2"/>
	<rect x="11.2" y="15" class="st47" width="1.5" height="0.2"/>
	<rect x="11.2" y="15.2" class="st48" width="1.5" height="0.2"/>
	<rect x="11.2" y="15.4" class="st49" width="1.5" height="0.2"/>
	<rect x="11.2" y="15.6" class="st50" width="1.5" height="0.2"/>
	<rect x="11.2" y="15.8" class="st51" width="1.5" height="0.2"/>
	<rect x="11.2" y="16" class="st52" width="1.5" height="0.2"/>
	<rect x="11.2" y="16.2" class="st53" width="1.5" height="0.2"/>
	<rect x="11.2" y="16.4" class="st54" width="1.5" height="0.2"/>
	<rect x="11.2" y="16.6" class="st55" width="1.5" height="0.2"/>
	<rect x="11.2" y="16.8" class="st56" width="1.5" height="0.2"/>
	<rect x="11.2" y="17.1" class="st57" width="1.5" height="0.2"/>
	<rect x="11.2" y="17.3" class="st58" width="1.5" height="0.2"/>
	<rect x="11.2" y="17.5" class="st59" width="1.5" height="0.2"/>
	<polygon class="st60" points="11.2,17.8 8.7,17.8 8.7,17.9 15.3,17.9 15.3,17.8 12.8,17.8 12.8,17.7 11.2,17.7 	"/>
	<rect x="8.7" y="17.9" class="st61" width="6.6" height="0.2"/>
	<rect x="8.7" y="18.1" class="st62" width="6.6" height="0.2"/>
	<rect x="8.7" y="18.3" class="st63" width="6.6" height="1"/>
	<rect x="1" y="1" class="st0" width="2" height="2"/>
	<polygon class="st0" points="1,1 1,1 1,0.5 	"/>
	<rect x="1" y="21" class="st0" width="2" height="2"/>
	<polygon class="st0" points="1,21 1,21 1,20.5 	"/>
	<polygon class="st0" points="21,1 21,1 21,0.5 	"/>
	<rect x="21" y="1" class="st0" width="2" height="2"/>
	<path class="st64" d="M23,4c0.6,0,1-0.4,1-1V1c0-0.6-0.4-1-1-1h-2c-0.6,0-1,0.4-1,1v0.2H4V1c0-0.6-0.4-1-1-1H1C0.4,0,0,0.4,0,1v2
		c0,0.6,0.4,1,1,1h0.2v16H1c-0.6,0-1,0.4-1,1v2c0,0.6,0.4,1,1,1h2c0.6,0,1-0.4,1-1v-0.2h16V23c0,0.6,0.4,1,1,1h2c0.6,0,1-0.4,1-1v-2
		c0-0.6-0.4-1-1-1h-0.2V4H23z M23,23h-2v-2h0l0-0.5V21h2V23z M21,20c-0.6,0-1,0.4-1,1v0.2H4V21c0-0.6-0.4-1-1-1H2.8V4H3
		c0.6,0,1-0.4,1-1V2.8h16V3c0,0.6,0.4,1,1,1h0.2v16H21z M23,1v2h-2V1h0l0-0.5V1H23z M3,1v2H1V1c0,0,0,0,0,0l0-0.5V1H3z M3,21v2H1v-2
		c0,0,0,0,0,0l0-0.5V21H3z"/>
	<polygon class="st0" points="21,21 21,21 21,20.5 	"/>
	<rect x="21" y="21" class="st0" width="2" height="2"/>
</g>
</svg>
